  0
SECTION
  2
HEADER
  9
$ACADVER
  1
AC1014
  9
$HANDSEED
  5
FFFF
  9
$MEASUREMENT
 70
     1
  0
ENDSEC
  0
SECTION
  2
TABLES
  0
TABLE
  2
VPORT
  5
8
330
0
100
AcDbSymbolTable
 70
     4
  0
VPORT
  5
2E
330
8
100
AcDbSymbolTableRecord
100
AcDbViewportTableRecord
  2
*ACTIVE
 70
     0
 10
0.0
 20
0.0
 11
1.0
 21
1.0
 12
210.0
 22
148.5
 13
0.0
 23
0.0
 14
10.0
 24
10.0
 15
10.0
 25
10.0
 16
0.0
 26
0.0
 36
1.0
 17
0.0
 27
0.0
 37
0.0
 40
341.0
 41
1.24
 42
50.0
 43
0.0
 44
0.0
 50
0.0
 51
0.0
 71
     0
 72
   100
 73
     1
 74
     3
 75
     0
 76
     0
 77
     0
 78
     0
  0
ENDTAB
  0
TABLE
  2
LTYPE
  5
5
330
0
100
AcDbSymbolTable
 70
     1
  0
LTYPE
  5
14
330
5
100
AcDbSymbolTableRecord
100
AcDbLinetypeTableRecord
  2
BYBLOCK
 70
     0
  3

 72
    65
 73
     0
 40
0.0
  0
LTYPE
  5
15
330
5
100
AcDbSymbolTableRecord
100
AcDbLinetypeTableRecord
  2
BYLAYER
 70
     0
  3

 72
    65
 73
     0
 40
0.0
  0
LTYPE
  5
16
330
5
100
AcDbSymbolTableRecord
100
AcDbLinetypeTableRecord
  2
CONTINUOUS
 70
     0
  3
Solid line
 72
    65
 73
     0
 40
0.0
  0
ENDTAB
  0
TABLE
  2
LAYER
  5
2
100
AcDbSymbolTable
 70
2
  0
LAYER
  5
50
100
AcDbSymbolTableRecord
100
AcDbLayerTableRecord
  2
0
 70
0
  6
CONTINUOUS
  0
LAYER
  5
51
100
AcDbSymbolTableRecord
100
AcDbLayerTableRecord
  2
Cut
 70
0
  6
CONTINUOUS
  0
ENDTAB
  0
TABLE
  2
STYLE
  5
3
330
0
100
AcDbSymbolTable
 70
     1
  0
STYLE
  5
11
330
3
100
AcDbSymbolTableRecord
100
AcDbTextStyleTableRecord
  2
STANDARD
 70
     0
 40
0.0
 41
1.0
 50
0.0
 71
     0
 42
2.5
  3
txt
  4

  0
ENDTAB
  0
TABLE
  2
VIEW
  5
6
330
0
100
AcDbSymbolTable
 70
     0
  0
ENDTAB
  0
TABLE
  2
UCS
  5
7
330
0
100
AcDbSymbolTable
 70
     0
  0
ENDTAB
  0
TABLE
  2
APPID
  5
9
330
0
100
AcDbSymbolTable
 70
     2
  0
APPID
  5
12
330
9
100
AcDbSymbolTableRecord
100
AcDbRegAppTableRecord
  2
ACAD
 70
     0
  0
ENDTAB
  0
TABLE
  2
DIMSTYLE
  5
A
330
0
100
AcDbSymbolTable
 70
     1
  0
DIMSTYLE
105
27
330
A
100
AcDbSymbolTableRecord
100
AcDbDimStyleTableRecord
  2
ISO-25
 70
     0
  3

  4

  5

  6

  7

 40
1.0
 41
2.5
 42
0.625
 43
3.75
 44
1.25
 45
0.0
 46
0.0
 47
0.0
 48
0.0
140
2.5
141
2.5
142
0.0
143
0.03937007874016
144
1.0
145
0.0
146
1.0
147
0.625
 71
     0
 72
     0
 73
     0
 74
     0
 75
     0
 76
     0
 77
     1
 78
     8
170
     0
171
     3
172
     1
173
     0
174
     0
175
     0
176
     0
177
     0
178
     0
270
     2
271
     2
272
     2
273
     2
274
     3
340
11
275
     0
280
     0
281
     0
282
     0
283
     0
284
     8
285
     0
286
     0
287
     3
288
     0
  0
ENDTAB
  0
TABLE
  2
BLOCK_RECORD
  5
1
330
0
100
AcDbSymbolTable
 70
     1
  0
BLOCK_RECORD
  5
1F
330
1
100
AcDbSymbolTableRecord
100
AcDbBlockTableRecord
  2
*MODEL_SPACE
  0
BLOCK_RECORD
  5
1B
330
1
100
AcDbSymbolTableRecord
100
AcDbBlockTableRecord
  2
*PAPER_SPACE
  0
ENDTAB
  0
ENDSEC
  0
SECTION
  2
BLOCKS
  0
BLOCK
  5
20
330
1F
100
AcDbEntity
  8
0
100
AcDbBlockBegin
  2
*MODEL_SPACE
 70
     0
 10
0.0
 20
0.0
 30
0.0
  3
*MODEL_SPACE
  1

  0
ENDBLK
  5
21
330
1F
100
AcDbEntity
  8
0
100
AcDbBlockEnd
  0
BLOCK
  5
1C
330
1B
100
AcDbEntity
 67
     1
  8
0
100
AcDbBlockBegin
  2
*PAPER_SPACE
  1

  0
ENDBLK
  5
1D
330
1B
100
AcDbEntity
 67
     1
  8
0
100
AcDbBlockEnd
  0
ENDSEC
  0
SECTION
  2
ENTITIES
  0
SPLINE
  5
100
100
AcDbEntity
  8
Cut
 62
7
100
AcDbSpline
 70
8
 71
3
 72
8
 73
4
 74
0
 40
0
 40
0
 40
0
 40
0
 40
1
 40
1
 40
1
 40
1
 10
52.636903
 20
162.211900
 30
0.0
 10
52.636903
 20
161.658138
 30
0.0
 10
52.341475
 20
161.146441
 30
0.0
 10
51.861903
 20
160.869561
 30
0.0
  0
SPLINE
  5
101
100
AcDbEntity
  8
Cut
 62
7
100
AcDbSpline
 70
8
 71
3
 72
8
 73
4
 74
0
 40
0
 40
0
 40
0
 40
0
 40
1
 40
1
 40
1
 40
1
 10
51.861903
 20
160.869561
 30
0.0
 10
51.382331
 20
160.592680
 30
0.0
 10
50.791475
 20
160.592680
 30
0.0
 10
50.311903
 20
160.869561
 30
0.0
  0
SPLINE
  5
102
100
AcDbEntity
  8
Cut
 62
7
100
AcDbSpline
 70
8
 71
3
 72
8
 73
4
 74
0
 40
0
 40
0
 40
0
 40
0
 40
1
 40
1
 40
1
 40
1
 10
50.311903
 20
160.869561
 30
0.0
 10
49.832331
 20
161.146441
 30
0.0
 10
49.536903
 20
161.658138
 30
0.0
 10
49.536903
 20
162.211900
 30
0.0
  0
SPLINE
  5
103
100
AcDbEntity
  8
Cut
 62
7
100
AcDbSpline
 70
8
 71
3
 72
8
 73
4
 74
0
 40
0
 40
0
 40
0
 40
0
 40
1
 40
1
 40
1
 40
1
 10
49.536903
 20
162.211900
 30
0.0
 10
49.536903
 20
162.765662
 30
0.0
 10
49.832331
 20
163.277359
 30
0.0
 10
50.311903
 20
163.554239
 30
0.0
  0
SPLINE
  5
104
100
AcDbEntity
  8
Cut
 62
7
100
AcDbSpline
 70
8
 71
3
 72
8
 73
4
 74
0
 40
0
 40
0
 40
0
 40
0
 40
1
 40
1
 40
1
 40
1
 10
50.311903
 20
163.554239
 30
0.0
 10
50.791475
 20
163.831120
 30
0.0
 10
51.382331
 20
163.831120
 30
0.0
 10
51.861903
 20
163.554239
 30
0.0
  0
SPLINE
  5
105
100
AcDbEntity
  8
Cut
 62
7
100
AcDbSpline
 70
8
 71
3
 72
8
 73
4
 74
0
 40
0
 40
0
 40
0
 40
0
 40
1
 40
1
 40
1
 40
1
 10
51.861903
 20
163.554239
 30
0.0
 10
52.341475
 20
163.277359
 30
0.0
 10
52.636903
 20
162.765662
 30
0.0
 10
52.636903
 20
162.211900
 30
0.0
  0
SPLINE
  5
106
100
AcDbEntity
  8
Cut
 62
7
100
AcDbSpline
 70
8
 71
3
 72
8
 73
4
 74
0
 40
0
 40
0
 40
0
 40
0
 40
1
 40
1
 40
1
 40
1
 10
64.636903
 20
162.211900
 30
0.0
 10
64.636903
 20
161.658138
 30
0.0
 10
64.341475
 20
161.146441
 30
0.0
 10
63.861903
 20
160.869561
 30
0.0
  0
SPLINE
  5
107
100
AcDbEntity
  8
Cut
 62
7
100
AcDbSpline
 70
8
 71
3
 72
8
 73
4
 74
0
 40
0
 40
0
 40
0
 40
0
 40
1
 40
1
 40
1
 40
1
 10
63.861903
 20
160.869561
 30
0.0
 10
63.382331
 20
160.592680
 30
0.0
 10
62.791475
 20
160.592680
 30
0.0
 10
62.311903
 20
160.869561
 30
0.0
  0
SPLINE
  5
108
100
AcDbEntity
  8
Cut
 62
7
100
AcDbSpline
 70
8
 71
3
 72
8
 73
4
 74
0
 40
0
 40
0
 40
0
 40
0
 40
1
 40
1
 40
1
 40
1
 10
62.311903
 20
160.869561
 30
0.0
 10
61.832331
 20
161.146441
 30
0.0
 10
61.536903
 20
161.658138
 30
0.0
 10
61.536903
 20
162.211900
 30
0.0
  0
SPLINE
  5
109
100
AcDbEntity
  8
Cut
 62
7
100
AcDbSpline
 70
8
 71
3
 72
8
 73
4
 74
0
 40
0
 40
0
 40
0
 40
0
 40
1
 40
1
 40
1
 40
1
 10
61.536903
 20
162.211900
 30
0.0
 10
61.536903
 20
162.765662
 30
0.0
 10
61.832331
 20
163.277359
 30
0.0
 10
62.311903
 20
163.554239
 30
0.0
  0
SPLINE
  5
10a
100
AcDbEntity
  8
Cut
 62
7
100
AcDbSpline
 70
8
 71
3
 72
8
 73
4
 74
0
 40
0
 40
0
 40
0
 40
0
 40
1
 40
1
 40
1
 40
1
 10
62.311903
 20
163.554239
 30
0.0
 10
62.791475
 20
163.831120
 30
0.0
 10
63.382331
 20
163.831120
 30
0.0
 10
63.861903
 20
163.554239
 30
0.0
  0
SPLINE
  5
10b
100
AcDbEntity
  8
Cut
 62
7
100
AcDbSpline
 70
8
 71
3
 72
8
 73
4
 74
0
 40
0
 40
0
 40
0
 40
0
 40
1
 40
1
 40
1
 40
1
 10
63.861903
 20
163.554239
 30
0.0
 10
64.341475
 20
163.277359
 30
0.0
 10
64.636903
 20
162.765662
 30
0.0
 10
64.636903
 20
162.211900
 30
0.0
  0
LWPOLYLINE
  5
10c
100
AcDbEntity
  8
Cut
 62
7
100
AcDbPolyline
 90
1
 70
1
 10
52.636903
 20
162.211900
 30
0.0
  0
SPLINE
  5
10d
100
AcDbEntity
  8
Cut
 62
1
100
AcDbSpline
 70
8
 71
3
 72
8
 73
4
 74
0
 40
0
 40
0
 40
0
 40
0
 40
1
 40
1
 40
1
 40
1
 10
40.429004
 20
202.661723
 30
0.0
 10
38.328186
 20
202.661726
 30
0.0
 10
36.636988
 20
201.245689
 30
0.0
 10
36.636988
 20
199.486723
 30
0.0
  0
LWPOLYLINE
  5
10e
100
AcDbEntity
  8
Cut
 62
7
100
AcDbPolyline
 90
1
 70
1
 10
64.636903
 20
162.211900
 30
0.0
  0
SPLINE
  5
10f
100
AcDbEntity
  8
Cut
 62
1
100
AcDbSpline
 70
8
 71
3
 72
8
 73
4
 74
0
 40
0
 40
0
 40
0
 40
0
 40
1
 40
1
 40
1
 40
1
 10
36.636988
 20
161.937080
 30
0.0
 10
36.636988
 20
160.178110
 30
0.0
 10
38.328186
 20
158.762080
 30
0.0
 10
40.429004
 20
158.762080
 30
0.0
  0
LWPOLYLINE
  5
110
100
AcDbEntity
  8
Cut
 62
1
100
AcDbPolyline
 90
2
 70
0
 10
36.636988
 20
199.486723
 30
0.0
 10
36.636988
 20
161.937080
 30
0.0
  0
SPLINE
  5
111
100
AcDbEntity
  8
Cut
 62
1
100
AcDbSpline
 70
8
 71
3
 72
8
 73
4
 74
0
 40
0
 40
0
 40
0
 40
0
 40
1
 40
1
 40
1
 40
1
 10
73.744800
 20
158.762080
 30
0.0
 10
75.845620
 20
158.762080
 30
0.0
 10
77.536816
 20
160.178110
 30
0.0
 10
77.536816
 20
161.937080
 30
0.0
  0
LWPOLYLINE
  5
112
100
AcDbEntity
  8
Cut
 62
1
100
AcDbPolyline
 90
2
 70
0
 10
40.429004
 20
158.762080
 30
0.0
 10
73.744800
 20
158.762080
 30
0.0
  0
SPLINE
  5
113
100
AcDbEntity
  8
Cut
 62
1
100
AcDbSpline
 70
8
 71
3
 72
8
 73
4
 74
0
 40
0
 40
0
 40
0
 40
0
 40
1
 40
1
 40
1
 40
1
 10
77.536816
 20
199.486723
 30
0.0
 10
77.536816
 20
201.245689
 30
0.0
 10
75.845620
 20
202.661723
 30
0.0
 10
73.744800
 20
202.661723
 30
0.0
  0
LWPOLYLINE
  5
114
100
AcDbEntity
  8
Cut
 62
1
100
AcDbPolyline
 90
2
 70
0
 10
77.536816
 20
161.937080
 30
0.0
 10
77.536816
 20
199.486723
 30
0.0
  0
SPLINE
  5
115
100
AcDbEntity
  8
Cut
 62
1
100
AcDbSpline
 70
8
 71
3
 72
8
 73
4
 74
0
 40
0
 40
0
 40
0
 40
0
 40
1
 40
1
 40
1
 40
1
 10
66.099273
 20
202.661723
 30
0.0
 10
66.099286
 20
202.658923
 30
0.0
 10
66.099789
 20
202.656223
 30
0.0
 10
66.099789
 20
202.653423
 30
0.0
  0
LWPOLYLINE
  5
116
100
AcDbEntity
  8
Cut
 62
1
100
AcDbPolyline
 90
2
 70
0
 10
73.744800
 20
202.661723
 30
0.0
 10
66.099273
 20
202.661723
 30
0.0
  0
SPLINE
  5
117
100
AcDbEntity
  8
Cut
 62
1
100
AcDbSpline
 70
8
 71
3
 72
8
 73
4
 74
0
 40
0
 40
0
 40
0
 40
0
 40
1
 40
1
 40
1
 40
1
 10
66.099789
 20
194.841490
 30
0.0
 10
66.099789
 20
193.992170
 30
0.0
 10
65.416386
 20
193.308250
 30
0.0
 10
64.567065
 20
193.308250
 30
0.0
  0
LWPOLYLINE
  5
118
100
AcDbEntity
  8
Cut
 62
1
100
AcDbPolyline
 90
2
 70
0
 10
66.099789
 20
202.653423
 30
0.0
 10
66.099789
 20
194.841490
 30
0.0
  0
SPLINE
  5
119
100
AcDbEntity
  8
Cut
 62
1
100
AcDbSpline
 70
8
 71
3
 72
8
 73
4
 74
0
 40
0
 40
0
 40
0
 40
0
 40
1
 40
1
 40
1
 40
1
 10
49.732830
 20
193.308250
 30
0.0
 10
48.883510
 20
193.308250
 30
0.0
 10
48.200107
 20
193.992170
 30
0.0
 10
48.200107
 20
194.841490
 30
0.0
  0
LWPOLYLINE
  5
11a
100
AcDbEntity
  8
Cut
 62
1
100
AcDbPolyline
 90
2
 70
0
 10
64.567065
 20
193.308250
 30
0.0
 10
49.732830
 20
193.308250
 30
0.0
  0
SPLINE
  5
11b
100
AcDbEntity
  8
Cut
 62
1
100
AcDbSpline
 70
8
 71
3
 72
8
 73
4
 74
0
 40
0
 40
0
 40
0
 40
0
 40
1
 40
1
 40
1
 40
1
 10
48.200107
 20
202.653423
 30
0.0
 10
48.200107
 20
202.656223
 30
0.0
 10
48.200607
 20
202.658923
 30
0.0
 10
48.200623
 20
202.661723
 30
0.0
  0
LWPOLYLINE
  5
11c
100
AcDbEntity
  8
Cut
 62
1
100
AcDbPolyline
 90
2
 70
0
 10
48.200107
 20
194.841490
 30
0.0
 10
48.200107
 20
202.653423
 30
0.0
  0
SPLINE
  5
11d
100
AcDbEntity
  8
Cut
 62
1
100
AcDbSpline
 70
8
 71
3
 72
8
 73
4
 74
0
 40
0
 40
0
 40
0
 40
0
 40
1
 40
1
 40
1
 40
1
 10
73.513701
 20
197.488312
 30
0.0
 10
73.513701
 20
196.898824
 30
0.0
 10
73.199213
 20
196.354114
 30
0.0
 10
72.688701
 20
196.059370
 30
0.0
  0
SPLINE
  5
11e
100
AcDbEntity
  8
Cut
 62
1
100
AcDbSpline
 70
8
 71
3
 72
8
 73
4
 74
0
 40
0
 40
0
 40
0
 40
0
 40
1
 40
1
 40
1
 40
1
 10
72.688701
 20
196.059370
 30
0.0
 10
72.178189
 20
195.764626
 30
0.0
 10
71.549213
 20
195.764626
 30
0.0
 10
71.038701
 20
196.059370
 30
0.0
  0
SPLINE
  5
11f
100
AcDbEntity
  8
Cut
 62
1
100
AcDbSpline
 70
8
 71
3
 72
8
 73
4
 74
0
 40
0
 40
0
 40
0
 40
0
 40
1
 40
1
 40
1
 40
1
 10
71.038701
 20
196.059370
 30
0.0
 10
70.528189
 20
196.354114
 30
0.0
 10
70.213701
 20
196.898824
 30
0.0
 10
70.213701
 20
197.488312
 30
0.0
  0
SPLINE
  5
120
100
AcDbEntity
  8
Cut
 62
1
100
AcDbSpline
 70
8
 71
3
 72
8
 73
4
 74
0
 40
0
 40
0
 40
0
 40
0
 40
1
 40
1
 40
1
 40
1
 10
70.213701
 20
197.488312
 30
0.0
 10
70.213701
 20
198.077800
 30
0.0
 10
70.528189
 20
198.622510
 30
0.0
 10
71.038701
 20
198.917254
 30
0.0
  0
SPLINE
  5
121
100
AcDbEntity
  8
Cut
 62
1
100
AcDbSpline
 70
8
 71
3
 72
8
 73
4
 74
0
 40
0
 40
0
 40
0
 40
0
 40
1
 40
1
 40
1
 40
1
 10
71.038701
 20
198.917254
 30
0.0
 10
71.549213
 20
199.211998
 30
0.0
 10
72.178189
 20
199.211998
 30
0.0
 10
72.688701
 20
198.917254
 30
0.0
  0
SPLINE
  5
122
100
AcDbEntity
  8
Cut
 62
1
100
AcDbSpline
 70
8
 71
3
 72
8
 73
4
 74
0
 40
0
 40
0
 40
0
 40
0
 40
1
 40
1
 40
1
 40
1
 10
72.688701
 20
198.917254
 30
0.0
 10
73.199213
 20
198.622510
 30
0.0
 10
73.513701
 20
198.077800
 30
0.0
 10
73.513701
 20
197.488312
 30
0.0
  0
LWPOLYLINE
  5
123
100
AcDbEntity
  8
Cut
 62
1
100
AcDbPolyline
 90
2
 70
0
 10
48.200623
 20
202.661723
 30
0.0
 10
40.429004
 20
202.661723
 30
0.0
  0
SPLINE
  5
124
100
AcDbEntity
  8
Cut
 62
1
100
AcDbSpline
 70
8
 71
3
 72
8
 73
4
 74
0
 40
0
 40
0
 40
0
 40
0
 40
1
 40
1
 40
1
 40
1
 10
73.513701
 20
163.935490
 30
0.0
 10
73.513701
 20
164.524978
 30
0.0
 10
73.199213
 20
165.069688
 30
0.0
 10
72.688701
 20
165.364432
 30
0.0
  0
SPLINE
  5
125
100
AcDbEntity
  8
Cut
 62
1
100
AcDbSpline
 70
8
 71
3
 72
8
 73
4
 74
0
 40
0
 40
0
 40
0
 40
0
 40
1
 40
1
 40
1
 40
1
 10
72.688701
 20
165.364432
 30
0.0
 10
72.178189
 20
165.659176
 30
0.0
 10
71.549213
 20
165.659176
 30
0.0
 10
71.038701
 20
165.364432
 30
0.0
  0
SPLINE
  5
126
100
AcDbEntity
  8
Cut
 62
1
100
AcDbSpline
 70
8
 71
3
 72
8
 73
4
 74
0
 40
0
 40
0
 40
0
 40
0
 40
1
 40
1
 40
1
 40
1
 10
71.038701
 20
165.364432
 30
0.0
 10
70.528189
 20
165.069688
 30
0.0
 10
70.213701
 20
164.524978
 30
0.0
 10
70.213701
 20
163.935490
 30
0.0
  0
SPLINE
  5
127
100
AcDbEntity
  8
Cut
 62
1
100
AcDbSpline
 70
8
 71
3
 72
8
 73
4
 74
0
 40
0
 40
0
 40
0
 40
0
 40
1
 40
1
 40
1
 40
1
 10
70.213701
 20
163.935490
 30
0.0
 10
70.213701
 20
163.346002
 30
0.0
 10
70.528189
 20
162.801292
 30
0.0
 10
71.038701
 20
162.506548
 30
0.0
  0
SPLINE
  5
128
100
AcDbEntity
  8
Cut
 62
1
100
AcDbSpline
 70
8
 71
3
 72
8
 73
4
 74
0
 40
0
 40
0
 40
0
 40
0
 40
1
 40
1
 40
1
 40
1
 10
71.038701
 20
162.506548
 30
0.0
 10
71.549213
 20
162.211804
 30
0.0
 10
72.178189
 20
162.211804
 30
0.0
 10
72.688701
 20
162.506548
 30
0.0
  0
SPLINE
  5
129
100
AcDbEntity
  8
Cut
 62
1
100
AcDbSpline
 70
8
 71
3
 72
8
 73
4
 74
0
 40
0
 40
0
 40
0
 40
0
 40
1
 40
1
 40
1
 40
1
 10
72.688701
 20
162.506548
 30
0.0
 10
73.199213
 20
162.801292
 30
0.0
 10
73.513701
 20
163.346002
 30
0.0
 10
73.513701
 20
163.935490
 30
0.0
  0
LWPOLYLINE
  5
12a
100
AcDbEntity
  8
Cut
 62
1
100
AcDbPolyline
 90
1
 70
1
 10
73.513701
 20
197.488312
 30
0.0
  0
SPLINE
  5
12b
100
AcDbEntity
  8
Cut
 62
1
100
AcDbSpline
 70
8
 71
3
 72
8
 73
4
 74
0
 40
0
 40
0
 40
0
 40
0
 40
1
 40
1
 40
1
 40
1
 10
43.836619
 20
197.488312
 30
0.0
 10
43.836619
 20
196.577042
 30
0.0
 10
43.097889
 20
195.838312
 30
0.0
 10
42.186619
 20
195.838312
 30
0.0
  0
SPLINE
  5
12c
100
AcDbEntity
  8
Cut
 62
1
100
AcDbSpline
 70
8
 71
3
 72
8
 73
4
 74
0
 40
0
 40
0
 40
0
 40
0
 40
1
 40
1
 40
1
 40
1
 10
42.186619
 20
195.838312
 30
0.0
 10
41.275349
 20
195.838312
 30
0.0
 10
40.536619
 20
196.577042
 30
0.0
 10
40.536619
 20
197.488312
 30
0.0
  0
SPLINE
  5
12d
100
AcDbEntity
  8
Cut
 62
1
100
AcDbSpline
 70
8
 71
3
 72
8
 73
4
 74
0
 40
0
 40
0
 40
0
 40
0
 40
1
 40
1
 40
1
 40
1
 10
40.536619
 20
197.488312
 30
0.0
 10
40.536619
 20
198.399582
 30
0.0
 10
41.275349
 20
199.138312
 30
0.0
 10
42.186619
 20
199.138312
 30
0.0
  0
SPLINE
  5
12e
100
AcDbEntity
  8
Cut
 62
1
100
AcDbSpline
 70
8
 71
3
 72
8
 73
4
 74
0
 40
0
 40
0
 40
0
 40
0
 40
1
 40
1
 40
1
 40
1
 10
42.186619
 20
199.138312
 30
0.0
 10
43.097889
 20
199.138312
 30
0.0
 10
43.836619
 20
198.399582
 30
0.0
 10
43.836619
 20
197.488312
 30
0.0
  0
LWPOLYLINE
  5
12f
100
AcDbEntity
  8
Cut
 62
1
100
AcDbPolyline
 90
1
 70
1
 10
73.513701
 20
163.935490
 30
0.0
  0
SPLINE
  5
130
100
AcDbEntity
  8
Cut
 62
1
100
AcDbSpline
 70
8
 71
3
 72
8
 73
4
 74
0
 40
0
 40
0
 40
0
 40
0
 40
1
 40
1
 40
1
 40
1
 10
43.960101
 20
163.935490
 30
0.0
 10
43.960101
 20
164.524978
 30
0.0
 10
43.645613
 20
165.069688
 30
0.0
 10
43.135101
 20
165.364432
 30
0.0
  0
SPLINE
  5
131
100
AcDbEntity
  8
Cut
 62
1
100
AcDbSpline
 70
8
 71
3
 72
8
 73
4
 74
0
 40
0
 40
0
 40
0
 40
0
 40
1
 40
1
 40
1
 40
1
 10
43.135101
 20
165.364432
 30
0.0
 10
42.624589
 20
165.659176
 30
0.0
 10
41.995613
 20
165.659176
 30
0.0
 10
41.485101
 20
165.364432
 30
0.0
  0
SPLINE
  5
132
100
AcDbEntity
  8
Cut
 62
1
100
AcDbSpline
 70
8
 71
3
 72
8
 73
4
 74
0
 40
0
 40
0
 40
0
 40
0
 40
1
 40
1
 40
1
 40
1
 10
41.485101
 20
165.364432
 30
0.0
 10
40.974589
 20
165.069688
 30
0.0
 10
40.660101
 20
164.524978
 30
0.0
 10
40.660101
 20
163.935490
 30
0.0
  0
SPLINE
  5
133
100
AcDbEntity
  8
Cut
 62
1
100
AcDbSpline
 70
8
 71
3
 72
8
 73
4
 74
0
 40
0
 40
0
 40
0
 40
0
 40
1
 40
1
 40
1
 40
1
 10
40.660101
 20
163.935490
 30
0.0
 10
40.660101
 20
163.346002
 30
0.0
 10
40.974589
 20
162.801292
 30
0.0
 10
41.485101
 20
162.506548
 30
0.0
  0
SPLINE
  5
134
100
AcDbEntity
  8
Cut
 62
1
100
AcDbSpline
 70
8
 71
3
 72
8
 73
4
 74
0
 40
0
 40
0
 40
0
 40
0
 40
1
 40
1
 40
1
 40
1
 10
41.485101
 20
162.506548
 30
0.0
 10
41.995613
 20
162.211804
 30
0.0
 10
42.624589
 20
162.211804
 30
0.0
 10
43.135101
 20
162.506548
 30
0.0
  0
SPLINE
  5
135
100
AcDbEntity
  8
Cut
 62
1
100
AcDbSpline
 70
8
 71
3
 72
8
 73
4
 74
0
 40
0
 40
0
 40
0
 40
0
 40
1
 40
1
 40
1
 40
1
 10
43.135101
 20
162.506548
 30
0.0
 10
43.645613
 20
162.801292
 30
0.0
 10
43.960101
 20
163.346002
 30
0.0
 10
43.960101
 20
163.935490
 30
0.0
  0
LWPOLYLINE
  5
136
100
AcDbEntity
  8
Cut
 62
1
100
AcDbPolyline
 90
1
 70
1
 10
43.836619
 20
197.488312
 30
0.0
  0
SPLINE
  5
137
100
AcDbEntity
  8
Cut
 62
7
100
AcDbSpline
 70
8
 71
3
 72
8
 73
4
 74
0
 40
0
 40
0
 40
0
 40
0
 40
1
 40
1
 40
1
 40
1
 10
42.186586
 20
185.940010
 30
0.0
 10
41.168687
 20
185.939145
 30
0.0
 10
40.322691
 20
185.155489
 30
0.0
 10
40.244068
 20
184.140630
 30
0.0
  0
LWPOLYLINE
  5
138
100
AcDbEntity
  8
Cut
 62
1
100
AcDbPolyline
 90
1
 70
1
 10
43.960101
 20
163.935490
 30
0.0
  0
SPLINE
  5
139
100
AcDbEntity
  8
Cut
 62
7
100
AcDbSpline
 70
8
 71
3
 72
8
 73
4
 74
0
 40
0
 40
0
 40
0
 40
0
 40
1
 40
1
 40
1
 40
1
 10
40.236868
 20
184.140630
 30
0.0
 10
40.236868
 20
184.140630
 30
0.0
 10
40.236868
 20
180.642650
 30
0.0
 10
40.236868
 20
180.642650
 30
0.0
  0
SPLINE
  5
13a
100
AcDbEntity
  8
Cut
 62
7
100
AcDbSpline
 70
8
 71
3
 72
8
 73
4
 74
0
 40
0
 40
0
 40
0
 40
0
 40
1
 40
1
 40
1
 40
1
 10
40.236868
 20
180.642650
 30
0.0
 10
39.602255
 20
180.083841
 30
0.0
 10
39.237946
 20
179.279576
 30
0.0
 10
39.236412
 20
178.434000
 30
0.0
  0
SPLINE
  5
13b
100
AcDbEntity
  8
Cut
 62
7
100
AcDbSpline
 70
8
 71
3
 72
8
 73
4
 74
0
 40
0
 40
0
 40
0
 40
0
 40
1
 40
1
 40
1
 40
1
 10
39.236412
 20
178.434000
 30
0.0
 10
39.236359
 20
177.651541
 30
0.0
 10
39.547167
 20
176.901114
 30
0.0
 10
40.100450
 20
176.347832
 30
0.0
  0
SPLINE
  5
13c
100
AcDbEntity
  8
Cut
 62
7
100
AcDbSpline
 70
8
 71
3
 72
8
 73
4
 74
0
 40
0
 40
0
 40
0
 40
0
 40
1
 40
1
 40
1
 40
1
 10
40.100450
 20
176.347832
 30
0.0
 10
40.653733
 20
175.794551
 30
0.0
 10
41.404161
 20
175.483745
 30
0.0
 10
42.186620
 20
175.483800
 30
0.0
  0
SPLINE
  5
13d
100
AcDbEntity
  8
Cut
 62
7
100
AcDbSpline
 70
8
 71
3
 72
8
 73
4
 74
0
 40
0
 40
0
 40
0
 40
0
 40
1
 40
1
 40
1
 40
1
 10
42.186620
 20
175.483800
 30
0.0
 10
42.969079
 20
175.483745
 30
0.0
 10
43.719507
 20
175.794551
 30
0.0
 10
44.272790
 20
176.347832
 30
0.0
  0
SPLINE
  5
13e
100
AcDbEntity
  8
Cut
 62
7
100
AcDbSpline
 70
8
 71
3
 72
8
 73
4
 74
0
 40
0
 40
0
 40
0
 40
0
 40
1
 40
1
 40
1
 40
1
 10
44.272790
 20
176.347832
 30
0.0
 10
44.826072
 20
176.901114
 30
0.0
 10
45.136880
 20
177.651541
 30
0.0
 10
45.136827
 20
178.434000
 30
0.0
  0
SPLINE
  5
13f
100
AcDbEntity
  8
Cut
 62
7
100
AcDbSpline
 70
8
 71
3
 72
8
 73
4
 74
0
 40
0
 40
0
 40
0
 40
0
 40
1
 40
1
 40
1
 40
1
 10
45.136827
 20
178.434000
 30
0.0
 10
45.135722
 20
179.279857
 30
0.0
 10
44.771580
 20
180.084547
 30
0.0
 10
44.136887
 20
180.643690
 30
0.0
  0
LWPOLYLINE
  5
140
100
AcDbEntity
  8
Cut
 62
7
100
AcDbPolyline
 90
2
 70
0
 10
40.244068
 20
184.140630
 30
0.0
 10
40.236868
 20
184.140630
 30
0.0
  0
SPLINE
  5
141
100
AcDbEntity
  8
Cut
 62
7
100
AcDbSpline
 70
8
 71
3
 72
8
 73
4
 74
0
 40
0
 40
0
 40
0
 40
0
 40
1
 40
1
 40
1
 40
1
 10
44.130187
 20
184.140630
 30
0.0
 10
44.051533
 20
185.155884
 30
0.0
 10
43.204934
 20
185.939683
 30
0.0
 10
42.186638
 20
185.940010
 30
0.0
  0
LWPOLYLINE
  5
142
100
AcDbEntity
  8
Cut
 62
7
100
AcDbPolyline
 90
3
 70
0
 10
44.136887
 20
180.643690
 30
0.0
 10
44.136887
 20
184.140630
 30
0.0
 10
44.130187
 20
184.140630
 30
0.0
  0
SPLINE
  5
143
100
AcDbEntity
  8
Cut
 62
7
100
AcDbSpline
 70
8
 71
3
 72
8
 73
4
 74
0
 40
0
 40
0
 40
0
 40
0
 40
1
 40
1
 40
1
 40
1
 10
71.863667
 20
185.940010
 30
0.0
 10
70.845768
 20
185.939145
 30
0.0
 10
69.999772
 20
185.155489
 30
0.0
 10
69.921149
 20
184.140630
 30
0.0
  0
LWPOLYLINE
  5
144
100
AcDbEntity
  8
Cut
 62
7
100
AcDbPolyline
 90
1
 70
1
 10
42.186638
 20
185.940010
 30
0.0
  0
SPLINE
  5
145
100
AcDbEntity
  8
Cut
 62
7
100
AcDbSpline
 70
8
 71
3
 72
8
 73
4
 74
0
 40
0
 40
0
 40
0
 40
0
 40
1
 40
1
 40
1
 40
1
 10
69.913949
 20
180.642650
 30
0.0
 10
69.279336
 20
180.083841
 30
0.0
 10
68.915027
 20
179.279576
 30
0.0
 10
68.913493
 20
178.434000
 30
0.0
  0
SPLINE
  5
146
100
AcDbEntity
  8
Cut
 62
7
100
AcDbSpline
 70
8
 71
3
 72
8
 73
4
 74
0
 40
0
 40
0
 40
0
 40
0
 40
1
 40
1
 40
1
 40
1
 10
68.913493
 20
178.434000
 30
0.0
 10
68.913440
 20
177.651541
 30
0.0
 10
69.224248
 20
176.901114
 30
0.0
 10
69.777531
 20
176.347832
 30
0.0
  0
SPLINE
  5
147
100
AcDbEntity
  8
Cut
 62
7
100
AcDbSpline
 70
8
 71
3
 72
8
 73
4
 74
0
 40
0
 40
0
 40
0
 40
0
 40
1
 40
1
 40
1
 40
1
 10
69.777531
 20
176.347832
 30
0.0
 10
70.330814
 20
175.794551
 30
0.0
 10
71.081242
 20
175.483745
 30
0.0
 10
71.863701
 20
175.483800
 30
0.0
  0
SPLINE
  5
148
100
AcDbEntity
  8
Cut
 62
7
100
AcDbSpline
 70
8
 71
3
 72
8
 73
4
 74
0
 40
0
 40
0
 40
0
 40
0
 40
1
 40
1
 40
1
 40
1
 10
71.863701
 20
175.483800
 30
0.0
 10
72.646160
 20
175.483745
 30
0.0
 10
73.396588
 20
175.794551
 30
0.0
 10
73.949871
 20
176.347832
 30
0.0
  0
SPLINE
  5
149
100
AcDbEntity
  8
Cut
 62
7
100
AcDbSpline
 70
8
 71
3
 72
8
 73
4
 74
0
 40
0
 40
0
 40
0
 40
0
 40
1
 40
1
 40
1
 40
1
 10
73.949871
 20
176.347832
 30
0.0
 10
74.503153
 20
176.901114
 30
0.0
 10
74.813961
 20
177.651541
 30
0.0
 10
74.813908
 20
178.434000
 30
0.0
  0
SPLINE
  5
14a
100
AcDbEntity
  8
Cut
 62
7
100
AcDbSpline
 70
8
 71
3
 72
8
 73
4
 74
0
 40
0
 40
0
 40
0
 40
0
 40
1
 40
1
 40
1
 40
1
 10
74.813908
 20
178.434000
 30
0.0
 10
74.812803
 20
179.279857
 30
0.0
 10
74.448661
 20
180.084547
 30
0.0
 10
73.813968
 20
180.643690
 30
0.0
  0
LWPOLYLINE
  5
14b
100
AcDbEntity
  8
Cut
 62
7
100
AcDbPolyline
 90
3
 70
0
 10
69.921149
 20
184.140630
 30
0.0
 10
69.913949
 20
184.140630
 30
0.0
 10
69.913949
 20
180.642650
 30
0.0
  0
SPLINE
  5
14c
100
AcDbEntity
  8
Cut
 62
7
100
AcDbSpline
 70
8
 71
3
 72
8
 73
4
 74
0
 40
0
 40
0
 40
0
 40
0
 40
1
 40
1
 40
1
 40
1
 10
73.807268
 20
184.140630
 30
0.0
 10
73.728614
 20
185.155884
 30
0.0
 10
72.882015
 20
185.939683
 30
0.0
 10
71.863719
 20
185.940010
 30
0.0
  0
LWPOLYLINE
  5
14d
100
AcDbEntity
  8
Cut
 62
7
100
AcDbPolyline
 90
3
 70
0
 10
73.813968
 20
180.643690
 30
0.0
 10
73.813968
 20
184.140630
 30
0.0
 10
73.807268
 20
184.140630
 30
0.0
  0
SPLINE
  5
14e
100
AcDbEntity
  8
Cut
 62
1
100
AcDbSpline
 70
8
 71
3
 72
8
 73
4
 74
0
 40
0
 40
0
 40
0
 40
0
 40
1
 40
1
 40
1
 40
1
 10
84.041889
 20
202.661723
 30
0.0
 10
81.941071
 20
202.661726
 30
0.0
 10
80.249873
 20
201.245689
 30
0.0
 10
80.249873
 20
199.486723
 30
0.0
  0
LWPOLYLINE
  5
14f
100
AcDbEntity
  8
Cut
 62
7
100
AcDbPolyline
 90
1
 70
1
 10
71.863719
 20
185.940010
 30
0.0
  0
SPLINE
  5
150
100
AcDbEntity
  8
Cut
 62
1
100
AcDbSpline
 70
8
 71
3
 72
8
 73
4
 74
0
 40
0
 40
0
 40
0
 40
0
 40
1
 40
1
 40
1
 40
1
 10
80.249873
 20
161.937080
 30
0.0
 10
80.249873
 20
160.178110
 30
0.0
 10
81.941071
 20
158.762080
 30
0.0
 10
84.041889
 20
158.762080
 30
0.0
  0
LWPOLYLINE
  5
151
100
AcDbEntity
  8
Cut
 62
1
100
AcDbPolyline
 90
2
 70
0
 10
80.249873
 20
199.486723
 30
0.0
 10
80.249873
 20
161.937080
 30
0.0
  0
SPLINE
  5
152
100
AcDbEntity
  8
Cut
 62
1
100
AcDbSpline
 70
8
 71
3
 72
8
 73
4
 74
0
 40
0
 40
0
 40
0
 40
0
 40
1
 40
1
 40
1
 40
1
 10
117.357690
 20
158.762080
 30
0.0
 10
119.458510
 20
158.762080
 30
0.0
 10
121.149700
 20
160.178110
 30
0.0
 10
121.149700
 20
161.937080
 30
0.0
  0
LWPOLYLINE
  5
153
100
AcDbEntity
  8
Cut
 62
1
100
AcDbPolyline
 90
2
 70
0
 10
84.041889
 20
158.762080
 30
0.0
 10
117.357690
 20
158.762080
 30
0.0
  0
SPLINE
  5
154
100
AcDbEntity
  8
Cut
 62
1
100
AcDbSpline
 70
8
 71
3
 72
8
 73
4
 74
0
 40
0
 40
0
 40
0
 40
0
 40
1
 40
1
 40
1
 40
1
 10
121.149700
 20
199.486723
 30
0.0
 10
121.149700
 20
201.245689
 30
0.0
 10
119.458510
 20
202.661723
 30
0.0
 10
117.357690
 20
202.661723
 30
0.0
  0
LWPOLYLINE
  5
155
100
AcDbEntity
  8
Cut
 62
1
100
AcDbPolyline
 90
2
 70
0
 10
121.149700
 20
161.937080
 30
0.0
 10
121.149700
 20
199.486723
 30
0.0
  0
SPLINE
  5
156
100
AcDbEntity
  8
Cut
 62
1
100
AcDbSpline
 70
8
 71
3
 72
8
 73
4
 74
0
 40
0
 40
0
 40
0
 40
0
 40
1
 40
1
 40
1
 40
1
 10
109.712160
 20
202.661723
 30
0.0
 10
109.712170
 20
202.658923
 30
0.0
 10
109.712670
 20
202.656223
 30
0.0
 10
109.712670
 20
202.653423
 30
0.0
  0
LWPOLYLINE
  5
157
100
AcDbEntity
  8
Cut
 62
1
100
AcDbPolyline
 90
2
 70
0
 10
117.357690
 20
202.661723
 30
0.0
 10
109.712160
 20
202.661723
 30
0.0
  0
SPLINE
  5
158
100
AcDbEntity
  8
Cut
 62
1
100
AcDbSpline
 70
8
 71
3
 72
8
 73
4
 74
0
 40
0
 40
0
 40
0
 40
0
 40
1
 40
1
 40
1
 40
1
 10
109.712670
 20
194.841490
 30
0.0
 10
109.712670
 20
193.992170
 30
0.0
 10
109.029270
 20
193.308250
 30
0.0
 10
108.179950
 20
193.308250
 30
0.0
  0
LWPOLYLINE
  5
159
100
AcDbEntity
  8
Cut
 62
1
100
AcDbPolyline
 90
2
 70
0
 10
109.712670
 20
202.653423
 30
0.0
 10
109.712670
 20
194.841490
 30
0.0
  0
SPLINE
  5
15a
100
AcDbEntity
  8
Cut
 62
1
100
AcDbSpline
 70
8
 71
3
 72
8
 73
4
 74
0
 40
0
 40
0
 40
0
 40
0
 40
1
 40
1
 40
1
 40
1
 10
93.345715
 20
193.308250
 30
0.0
 10
92.496395
 20
193.308250
 30
0.0
 10
91.812992
 20
193.992170
 30
0.0
 10
91.812992
 20
194.841490
 30
0.0
  0
LWPOLYLINE
  5
15b
100
AcDbEntity
  8
Cut
 62
1
100
AcDbPolyline
 90
2
 70
0
 10
108.179950
 20
193.308250
 30
0.0
 10
93.345715
 20
193.308250
 30
0.0
  0
SPLINE
  5
15c
100
AcDbEntity
  8
Cut
 62
1
100
AcDbSpline
 70
8
 71
3
 72
8
 73
4
 74
0
 40
0
 40
0
 40
0
 40
0
 40
1
 40
1
 40
1
 40
1
 10
91.812992
 20
202.653423
 30
0.0
 10
91.812992
 20
202.656223
 30
0.0
 10
91.813492
 20
202.658923
 30
0.0
 10
91.813508
 20
202.661723
 30
0.0
  0
LWPOLYLINE
  5
15d
100
AcDbEntity
  8
Cut
 62
1
100
AcDbPolyline
 90
2
 70
0
 10
91.812992
 20
194.841490
 30
0.0
 10
91.812992
 20
202.653423
 30
0.0
  0
SPLINE
  5
15e
100
AcDbEntity
  8
Cut
 62
1
100
AcDbSpline
 70
8
 71
3
 72
8
 73
4
 74
0
 40
0
 40
0
 40
0
 40
0
 40
1
 40
1
 40
1
 40
1
 10
117.126590
 20
197.488312
 30
0.0
 10
117.126590
 20
196.898824
 30
0.0
 10
116.812102
 20
196.354114
 30
0.0
 10
116.301590
 20
196.059370
 30
0.0
  0
SPLINE
  5
15f
100
AcDbEntity
  8
Cut
 62
1
100
AcDbSpline
 70
8
 71
3
 72
8
 73
4
 74
0
 40
0
 40
0
 40
0
 40
0
 40
1
 40
1
 40
1
 40
1
 10
116.301590
 20
196.059370
 30
0.0
 10
115.791078
 20
195.764626
 30
0.0
 10
115.162102
 20
195.764626
 30
0.0
 10
114.651590
 20
196.059370
 30
0.0
  0
SPLINE
  5
160
100
AcDbEntity
  8
Cut
 62
1
100
AcDbSpline
 70
8
 71
3
 72
8
 73
4
 74
0
 40
0
 40
0
 40
0
 40
0
 40
1
 40
1
 40
1
 40
1
 10
114.651590
 20
196.059370
 30
0.0
 10
114.141078
 20
196.354114
 30
0.0
 10
113.826590
 20
196.898824
 30
0.0
 10
113.826590
 20
197.488312
 30
0.0
  0
SPLINE
  5
161
100
AcDbEntity
  8
Cut
 62
1
100
AcDbSpline
 70
8
 71
3
 72
8
 73
4
 74
0
 40
0
 40
0
 40
0
 40
0
 40
1
 40
1
 40
1
 40
1
 10
113.826590
 20
197.488312
 30
0.0
 10
113.826590
 20
198.077800
 30
0.0
 10
114.141078
 20
198.622510
 30
0.0
 10
114.651590
 20
198.917254
 30
0.0
  0
SPLINE
  5
162
100
AcDbEntity
  8
Cut
 62
1
100
AcDbSpline
 70
8
 71
3
 72
8
 73
4
 74
0
 40
0
 40
0
 40
0
 40
0
 40
1
 40
1
 40
1
 40
1
 10
114.651590
 20
198.917254
 30
0.0
 10
115.162102
 20
199.211998
 30
0.0
 10
115.791078
 20
199.211998
 30
0.0
 10
116.301590
 20
198.917254
 30
0.0
  0
SPLINE
  5
163
100
AcDbEntity
  8
Cut
 62
1
100
AcDbSpline
 70
8
 71
3
 72
8
 73
4
 74
0
 40
0
 40
0
 40
0
 40
0
 40
1
 40
1
 40
1
 40
1
 10
116.301590
 20
198.917254
 30
0.0
 10
116.812102
 20
198.622510
 30
0.0
 10
117.126590
 20
198.077800
 30
0.0
 10
117.126590
 20
197.488312
 30
0.0
  0
LWPOLYLINE
  5
164
100
AcDbEntity
  8
Cut
 62
1
100
AcDbPolyline
 90
2
 70
0
 10
91.813508
 20
202.661723
 30
0.0
 10
84.041889
 20
202.661723
 30
0.0
  0
SPLINE
  5
165
100
AcDbEntity
  8
Cut
 62
1
100
AcDbSpline
 70
8
 71
3
 72
8
 73
4
 74
0
 40
0
 40
0
 40
0
 40
0
 40
1
 40
1
 40
1
 40
1
 10
117.126590
 20
163.935490
 30
0.0
 10
117.126590
 20
164.524978
 30
0.0
 10
116.812102
 20
165.069688
 30
0.0
 10
116.301590
 20
165.364432
 30
0.0
  0
SPLINE
  5
166
100
AcDbEntity
  8
Cut
 62
1
100
AcDbSpline
 70
8
 71
3
 72
8
 73
4
 74
0
 40
0
 40
0
 40
0
 40
0
 40
1
 40
1
 40
1
 40
1
 10
116.301590
 20
165.364432
 30
0.0
 10
115.791078
 20
165.659176
 30
0.0
 10
115.162102
 20
165.659176
 30
0.0
 10
114.651590
 20
165.364432
 30
0.0
  0
SPLINE
  5
167
100
AcDbEntity
  8
Cut
 62
1
100
AcDbSpline
 70
8
 71
3
 72
8
 73
4
 74
0
 40
0
 40
0
 40
0
 40
0
 40
1
 40
1
 40
1
 40
1
 10
114.651590
 20
165.364432
 30
0.0
 10
114.141078
 20
165.069688
 30
0.0
 10
113.826590
 20
164.524978
 30
0.0
 10
113.826590
 20
163.935490
 30
0.0
  0
SPLINE
  5
168
100
AcDbEntity
  8
Cut
 62
1
100
AcDbSpline
 70
8
 71
3
 72
8
 73
4
 74
0
 40
0
 40
0
 40
0
 40
0
 40
1
 40
1
 40
1
 40
1
 10
113.826590
 20
163.935490
 30
0.0
 10
113.826590
 20
163.346002
 30
0.0
 10
114.141078
 20
162.801292
 30
0.0
 10
114.651590
 20
162.506548
 30
0.0
  0
SPLINE
  5
169
100
AcDbEntity
  8
Cut
 62
1
100
AcDbSpline
 70
8
 71
3
 72
8
 73
4
 74
0
 40
0
 40
0
 40
0
 40
0
 40
1
 40
1
 40
1
 40
1
 10
114.651590
 20
162.506548
 30
0.0
 10
115.162102
 20
162.211804
 30
0.0
 10
115.791078
 20
162.211804
 30
0.0
 10
116.301590
 20
162.506548
 30
0.0
  0
SPLINE
  5
16a
100
AcDbEntity
  8
Cut
 62
1
100
AcDbSpline
 70
8
 71
3
 72
8
 73
4
 74
0
 40
0
 40
0
 40
0
 40
0
 40
1
 40
1
 40
1
 40
1
 10
116.301590
 20
162.506548
 30
0.0
 10
116.812102
 20
162.801292
 30
0.0
 10
117.126590
 20
163.346002
 30
0.0
 10
117.126590
 20
163.935490
 30
0.0
  0
LWPOLYLINE
  5
16b
100
AcDbEntity
  8
Cut
 62
1
100
AcDbPolyline
 90
1
 70
1
 10
117.126590
 20
197.488312
 30
0.0
  0
SPLINE
  5
16c
100
AcDbEntity
  8
Cut
 62
1
100
AcDbSpline
 70
8
 71
3
 72
8
 73
4
 74
0
 40
0
 40
0
 40
0
 40
0
 40
1
 40
1
 40
1
 40
1
 10
87.572989
 20
197.488312
 30
0.0
 10
87.572989
 20
196.898824
 30
0.0
 10
87.258501
 20
196.354114
 30
0.0
 10
86.747989
 20
196.059370
 30
0.0
  0
SPLINE
  5
16d
100
AcDbEntity
  8
Cut
 62
1
100
AcDbSpline
 70
8
 71
3
 72
8
 73
4
 74
0
 40
0
 40
0
 40
0
 40
0
 40
1
 40
1
 40
1
 40
1
 10
86.747989
 20
196.059370
 30
0.0
 10
86.237477
 20
195.764626
 30
0.0
 10
85.608501
 20
195.764626
 30
0.0
 10
85.097989
 20
196.059370
 30
0.0
  0
SPLINE
  5
16e
100
AcDbEntity
  8
Cut
 62
1
100
AcDbSpline
 70
8
 71
3
 72
8
 73
4
 74
0
 40
0
 40
0
 40
0
 40
0
 40
1
 40
1
 40
1
 40
1
 10
85.097989
 20
196.059370
 30
0.0
 10
84.587477
 20
196.354114
 30
0.0
 10
84.272989
 20
196.898824
 30
0.0
 10
84.272989
 20
197.488312
 30
0.0
  0
SPLINE
  5
16f
100
AcDbEntity
  8
Cut
 62
1
100
AcDbSpline
 70
8
 71
3
 72
8
 73
4
 74
0
 40
0
 40
0
 40
0
 40
0
 40
1
 40
1
 40
1
 40
1
 10
84.272989
 20
197.488312
 30
0.0
 10
84.272989
 20
198.077800
 30
0.0
 10
84.587477
 20
198.622510
 30
0.0
 10
85.097989
 20
198.917254
 30
0.0
  0
SPLINE
  5
170
100
AcDbEntity
  8
Cut
 62
1
100
AcDbSpline
 70
8
 71
3
 72
8
 73
4
 74
0
 40
0
 40
0
 40
0
 40
0
 40
1
 40
1
 40
1
 40
1
 10
85.097989
 20
198.917254
 30
0.0
 10
85.608501
 20
199.211998
 30
0.0
 10
86.237477
 20
199.211998
 30
0.0
 10
86.747989
 20
198.917254
 30
0.0
  0
SPLINE
  5
171
100
AcDbEntity
  8
Cut
 62
1
100
AcDbSpline
 70
8
 71
3
 72
8
 73
4
 74
0
 40
0
 40
0
 40
0
 40
0
 40
1
 40
1
 40
1
 40
1
 10
86.747989
 20
198.917254
 30
0.0
 10
87.258501
 20
198.622510
 30
0.0
 10
87.572989
 20
198.077800
 30
0.0
 10
87.572989
 20
197.488312
 30
0.0
  0
LWPOLYLINE
  5
172
100
AcDbEntity
  8
Cut
 62
1
100
AcDbPolyline
 90
1
 70
1
 10
117.126590
 20
163.935490
 30
0.0
  0
SPLINE
  5
173
100
AcDbEntity
  8
Cut
 62
1
100
AcDbSpline
 70
8
 71
3
 72
8
 73
4
 74
0
 40
0
 40
0
 40
0
 40
0
 40
1
 40
1
 40
1
 40
1
 10
87.572989
 20
163.935490
 30
0.0
 10
87.572989
 20
164.524978
 30
0.0
 10
87.258501
 20
165.069688
 30
0.0
 10
86.747989
 20
165.364432
 30
0.0
  0
SPLINE
  5
174
100
AcDbEntity
  8
Cut
 62
1
100
AcDbSpline
 70
8
 71
3
 72
8
 73
4
 74
0
 40
0
 40
0
 40
0
 40
0
 40
1
 40
1
 40
1
 40
1
 10
86.747989
 20
165.364432
 30
0.0
 10
86.237477
 20
165.659176
 30
0.0
 10
85.608501
 20
165.659176
 30
0.0
 10
85.097989
 20
165.364432
 30
0.0
  0
SPLINE
  5
175
100
AcDbEntity
  8
Cut
 62
1
100
AcDbSpline
 70
8
 71
3
 72
8
 73
4
 74
0
 40
0
 40
0
 40
0
 40
0
 40
1
 40
1
 40
1
 40
1
 10
85.097989
 20
165.364432
 30
0.0
 10
84.587477
 20
165.069688
 30
0.0
 10
84.272989
 20
164.524978
 30
0.0
 10
84.272989
 20
163.935490
 30
0.0
  0
SPLINE
  5
176
100
AcDbEntity
  8
Cut
 62
1
100
AcDbSpline
 70
8
 71
3
 72
8
 73
4
 74
0
 40
0
 40
0
 40
0
 40
0
 40
1
 40
1
 40
1
 40
1
 10
84.272989
 20
163.935490
 30
0.0
 10
84.272989
 20
163.346002
 30
0.0
 10
84.587477
 20
162.801292
 30
0.0
 10
85.097989
 20
162.506548
 30
0.0
  0
SPLINE
  5
177
100
AcDbEntity
  8
Cut
 62
1
100
AcDbSpline
 70
8
 71
3
 72
8
 73
4
 74
0
 40
0
 40
0
 40
0
 40
0
 40
1
 40
1
 40
1
 40
1
 10
85.097989
 20
162.506548
 30
0.0
 10
85.608501
 20
162.211804
 30
0.0
 10
86.237477
 20
162.211804
 30
0.0
 10
86.747989
 20
162.506548
 30
0.0
  0
SPLINE
  5
178
100
AcDbEntity
  8
Cut
 62
1
100
AcDbSpline
 70
8
 71
3
 72
8
 73
4
 74
0
 40
0
 40
0
 40
0
 40
0
 40
1
 40
1
 40
1
 40
1
 10
86.747989
 20
162.506548
 30
0.0
 10
87.258501
 20
162.801292
 30
0.0
 10
87.572989
 20
163.346002
 30
0.0
 10
87.572989
 20
163.935490
 30
0.0
  0
LWPOLYLINE
  5
179
100
AcDbEntity
  8
Cut
 62
1
100
AcDbPolyline
 90
1
 70
1
 10
87.572989
 20
197.488312
 30
0.0
  0
LWPOLYLINE
  5
17a
100
AcDbEntity
  8
Cut
 62
1
100
AcDbPolyline
 90
1
 70
1
 10
87.572989
 20
163.935490
 30
0.0
  0
ENDSEC
  0
SECTION
  2
OBJECTS
  0
DICTIONARY
  5
C
330
0
100
AcDbDictionary
  3
ACAD_GROUP
350
D
  3
ACAD_MLINESTYLE
350
17
  0
DICTIONARY
  5
D
330
C
100
AcDbDictionary
  0
DICTIONARY
  5
1A
330
C
100
AcDbDictionary
  0
DICTIONARY
  5
17
330
C
100
AcDbDictionary
  3
STANDARD
350
18
  0
DICTIONARY
  5
19
330
C
100
AcDbDictionary
  0
ENDSEC
  0
EOF
